<svg width="200" height="50" viewBox="0 0 200 50" fill="none" xmlns="http://www.w3.org/2000/svg">
<rect x="1" y="1" width="198" height="48" rx="14" fill="#FE7A00" fill-opacity="0.85" stroke="black" stroke-width="2"/>
<path d="M40.2642 32V17.4545H46.0028C47.1061 17.4545 48.0459 17.6652 48.8224 18.0866C49.599 18.5033 50.1908 19.0833 50.598 19.8267C51.0099 20.5653 51.2159 21.4176 51.2159 22.3835C51.2159 23.3494 51.0076 24.2017 50.5909 24.9403C50.1742 25.679 49.5705 26.2543 48.7798 26.6662C47.9938 27.0781 47.0421 27.2841 45.9247 27.2841H42.267V24.8196H45.4276C46.0194 24.8196 46.5071 24.7178 46.8906 24.5142C47.2789 24.3059 47.5677 24.0194 47.7571 23.6548C47.9512 23.2855 48.0483 22.8617 48.0483 22.3835C48.0483 21.9006 47.9512 21.4792 47.7571 21.1193C47.5677 20.7547 47.2789 20.473 46.8906 20.2741C46.5024 20.0705 46.0099 19.9688 45.4134 19.9688H43.3395V32H40.2642ZM53.2134 32V17.4545H56.2887V29.4645H62.5245V32H53.2134ZM67.4393 32H64.1438L69.1651 17.4545H73.1282L78.1424 32H74.8469L71.2035 20.7784H71.0898L67.4393 32ZM67.2333 26.2827H75.0174V28.6832H67.2333V26.2827ZM77.5565 17.4545H81.0011L84.3178 23.7188H84.4599L87.7766 17.4545H91.2212L85.9158 26.858V32H82.8619V26.858L77.5565 17.4545ZM100.037 32H96.7415L101.763 17.4545H105.726L110.74 32H107.445L103.801 20.7784H103.688L100.037 32ZM99.831 26.2827H107.615V28.6832H99.831V26.2827ZM121.452 22.1562C121.353 21.8106 121.213 21.5052 121.033 21.2401C120.853 20.9702 120.633 20.7429 120.373 20.5582C120.117 20.3688 119.823 20.2244 119.492 20.125C119.165 20.0256 118.803 19.9759 118.405 19.9759C117.662 19.9759 117.008 20.1605 116.445 20.5298C115.886 20.8991 115.451 21.4366 115.138 22.142C114.826 22.8428 114.669 23.6998 114.669 24.7131C114.669 25.7263 114.823 26.5881 115.131 27.2983C115.439 28.0085 115.874 28.5507 116.438 28.9247C117.001 29.294 117.667 29.4787 118.434 29.4787C119.13 29.4787 119.724 29.3556 120.216 29.1094C120.713 28.8584 121.092 28.5057 121.353 28.0511C121.618 27.5966 121.75 27.0592 121.75 26.4389L122.375 26.5312H118.625V24.2159H124.712V26.0483C124.712 27.3267 124.442 28.4252 123.902 29.3438C123.363 30.2576 122.619 30.9631 121.672 31.4602C120.725 31.9527 119.641 32.1989 118.419 32.1989C117.056 32.1989 115.858 31.8982 114.826 31.2969C113.793 30.6908 112.989 29.8314 112.411 28.7188C111.838 27.6013 111.551 26.2756 111.551 24.7415C111.551 23.5625 111.722 22.5114 112.063 21.5881C112.408 20.66 112.891 19.8741 113.512 19.2301C114.132 18.5862 114.854 18.0961 115.678 17.7599C116.502 17.4238 117.394 17.2557 118.355 17.2557C119.179 17.2557 119.946 17.3764 120.657 17.6179C121.367 17.8546 121.997 18.1908 122.546 18.6264C123.1 19.062 123.552 19.5805 123.902 20.1818C124.253 20.7784 124.478 21.4366 124.577 22.1562H121.452ZM129.08 32H125.784L130.806 17.4545H134.769L139.783 32H136.488L132.844 20.7784H132.73L129.08 32ZM128.874 26.2827H136.658V28.6832H128.874V26.2827ZM144.609 17.4545V32H141.534V17.4545H144.609ZM159.305 17.4545V32H156.649L150.321 22.8452H150.214V32H147.139V17.4545H149.838L156.116 26.6023H156.244V17.4545H159.305Z" fill="#FBFBFB"/>
</svg>
